<svg>
    <symbol id="icon-search" viewBox="0 0 24 24" fill="none" xmlns="http://www.w3.org/2000/svg">
        <g id="SVGRepo_bgCarrier" stroke-width="0"></g>
        <g id="SVGRepo_tracerCarrier" stroke-linecap="round" stroke-linejoin="round"></g>
        <g id="SVGRepo_iconCarrier">
            <g id="Interface / Search_Magnifying_Glass">
                <path id="Vector"
                    d="M15 15L21 21M10 17C6.13401 17 3 13.866 3 10C3 6.13401 6.13401 3 10 3C13.866 3 17 6.13401 17 10C17 13.866 13.866 17 10 17Z"
                    stroke="currentColor" stroke-width="2" stroke-linecap="round" stroke-linejoin="round"></path>
            </g>
        </g>
    </symbol>

    <symbol id="icon-watch" viewBox="0 0 192 192" xmlns="http://www.w3.org/2000/svg" fill="none"
        transform="matrix(1, 0, 0, 1, 0, 0)">
        <g id="SVGRepo_bgCarrier" stroke-width="0"></g>
        <g id="SVGRepo_tracerCarrier" stroke-linecap="round" stroke-linejoin="round"></g>
        <g id="SVGRepo_iconCarrier">
            <g transform="translate(16 16)">
                <circle cx="80" cy="80" r="74"
                    style="fill:none;stroke:currentColor;stroke-width:12;stroke-linejoin:round;stroke-opacity:1">
                </circle>
                <path d="M80 30v50l40 32"
                    style="fill:none;stroke:currentColor;stroke-width:12;stroke-linecap:round;stroke-linejoin:round;stroke-opacity:1">
                </path>
            </g>
        </g>
    </symbol>
    <symbol id="icon-like" viewBox="0 0 24 24" fill="none" xmlns="http://www.w3.org/2000/svg">
        <g id="SVGRepo_bgCarrier" stroke-width="0"></g>
        <g id="SVGRepo_tracerCarrier" stroke-linecap="round" stroke-linejoin="round"></g>
        <g id="SVGRepo_iconCarrier">
            <path
                d="M19.3 5.71002C18.841 5.24601 18.2943 4.87797 17.6917 4.62731C17.0891 4.37666 16.4426 4.2484 15.79 4.25002C15.1373 4.2484 14.4909 4.37666 13.8883 4.62731C13.2857 4.87797 12.739 5.24601 12.28 5.71002L12 6.00002L11.72 5.72001C10.7917 4.79182 9.53273 4.27037 8.22 4.27037C6.90726 4.27037 5.64829 4.79182 4.72 5.72001C3.80386 6.65466 3.29071 7.91125 3.29071 9.22002C3.29071 10.5288 3.80386 11.7854 4.72 12.72L11.49 19.51C11.6306 19.6505 11.8212 19.7294 12.02 19.7294C12.2187 19.7294 12.4094 19.6505 12.55 19.51L19.32 12.72C20.2365 11.7823 20.7479 10.5221 20.7442 9.21092C20.7405 7.89973 20.2218 6.64248 19.3 5.71002Z"
                fill="currentColor"></path>
        </g>
    </symbol>
    <symbol id="icon-dislike" viewBox="0 0 24 24" fill="none" xmlns="http://www.w3.org/2000/svg">
        <g id="SVGRepo_bgCarrier" stroke-width="0"></g>
        <g id="SVGRepo_tracerCarrier" stroke-linecap="round" stroke-linejoin="round"></g>
        <g id="SVGRepo_iconCarrier">
            <path
                d="M12 19.7501C11.8012 19.7499 11.6105 19.6708 11.47 19.5301L4.70001 12.7401C3.78387 11.8054 3.27072 10.5488 3.27072 9.24006C3.27072 7.9313 3.78387 6.6747 4.70001 5.74006C5.6283 4.81186 6.88727 4.29042 8.20001 4.29042C9.51274 4.29042 10.7717 4.81186 11.7 5.74006L12 6.00006L12.28 5.72006C12.739 5.25606 13.2857 4.88801 13.8883 4.63736C14.4909 4.3867 15.1374 4.25845 15.79 4.26006C16.442 4.25714 17.088 4.38382 17.6906 4.63274C18.2931 4.88167 18.8402 5.24786 19.3 5.71006C20.2161 6.6447 20.7293 7.9013 20.7293 9.21006C20.7293 10.5188 20.2161 11.7754 19.3 12.7101L12.53 19.5001C12.463 19.5752 12.3815 19.636 12.2904 19.679C12.1994 19.7219 12.1006 19.7461 12 19.7501ZM8.21001 5.75006C7.75584 5.74675 7.30551 5.83342 6.885 6.00505C6.4645 6.17669 6.08215 6.42989 5.76001 6.75006C5.11088 7.40221 4.74646 8.28491 4.74646 9.20506C4.74646 10.1252 5.11088 11.0079 5.76001 11.6601L12 17.9401L18.23 11.6801C18.5526 11.3578 18.8086 10.9751 18.9832 10.5538C19.1578 10.1326 19.2477 9.68107 19.2477 9.22506C19.2477 8.76905 19.1578 8.31752 18.9832 7.89627C18.8086 7.47503 18.5526 7.09233 18.23 6.77006C17.9104 6.44929 17.5299 6.1956 17.1109 6.02387C16.6919 5.85215 16.2428 5.76586 15.79 5.77006C15.3358 5.76675 14.8855 5.85342 14.465 6.02505C14.0445 6.19669 13.6621 6.44989 13.34 6.77006L12.53 7.58006C12.3869 7.71581 12.1972 7.79149 12 7.79149C11.8028 7.79149 11.6131 7.71581 11.47 7.58006L10.66 6.77006C10.3395 6.44628 9.95791 6.18939 9.53733 6.01429C9.11675 5.83919 8.66558 5.74937 8.21001 5.75006Z"
                fill="currentColor"></path>
        </g>
    </symbol>
    <symbol id="icon-note" viewBox="0 0 20 19" xmlns="http://www.w3.org/2000/svg">
        <path d="M8 16V1.9697L19 1V13" stroke="currentColor" />
        <ellipse cx="4.5" cy="16" rx="3.5" ry="2" stroke="currentColor" />
        <ellipse cx="15.5" cy="13" rx="3.5" ry="2" stroke="currentColor" />
    </symbol>
    <symbol id="icon-volume" viewBox="0 0 24 24" fill="none" xmlns="http://www.w3.org/2000/svg" stroke="currentColor">
        <g id="SVGRepo_bgCarrier" stroke-width="0"></g>
        <g id="SVGRepo_tracerCarrier" stroke-linecap="round" stroke-linejoin="round"></g>
        <g id="SVGRepo_iconCarrier">
            <g id="Media / Volume_Min">
                <path id="Vector"
                    d="M16.41 8.34283C16.9095 8.80867 17.3084 9.37193 17.5818 9.99785C17.8553 10.6238 17.9976 11.2991 18 11.9821C18.0024 12.6652 17.8648 13.3415 17.5957 13.9693C17.3266 14.5971 16.9317 15.1632 16.4354 15.6325M7.4803 15.4065L9.15553 17.4796C10.0288 18.5603 10.4655 19.1006 10.848 19.1594C11.1792 19.2104 11.5138 19.092 11.7394 18.8443C12 18.5581 12 17.8634 12 16.4739V7.52526C12 6.13581 12 5.44109 11.7394 5.1549C11.5138 4.90715 11.1792 4.78884 10.848 4.83975C10.4655 4.89858 10.0288 5.43893 9.15553 6.51963L7.4803 8.59273C7.30388 8.81105 7.21567 8.92021 7.10652 8.99876C7.00982 9.06835 6.90147 9.1201 6.78656 9.15158C6.65687 9.1871 6.51652 9.1871 6.23583 9.1871H4.8125C4.0563 9.1871 3.6782 9.1871 3.37264 9.28804C2.77131 9.4867 2.2996 9.95841 2.10094 10.5597C2 10.8653 2 11.2434 2 11.9996C2 12.7558 2 13.1339 2.10094 13.4395C2.2996 14.0408 2.77131 14.5125 3.37264 14.7112C3.6782 14.8121 4.0563 14.8121 4.8125 14.8121H6.23583C6.51652 14.8121 6.65687 14.8121 6.78656 14.8476C6.90147 14.8791 7.00982 14.9308 7.10652 15.0004C7.21567 15.079 7.30388 15.1881 7.4803 15.4065Z"
                    stroke="currentColor" stroke-width="2" stroke-linecap="round" stroke-linejoin="round"></path>
            </g>
        </g>
    </symbol>

    <symbol id="icon-mute" viewBox="0 0 24 24" fill="none" xmlns="http://www.w3.org/2000/svg">
        <g id="SVGRepo_bgCarrier" stroke-width="0"></g>
        <g id="SVGRepo_tracerCarrier" stroke-linecap="round" stroke-linejoin="round"></g>
        <g id="SVGRepo_iconCarrier">
            <g id="Media / Volume_Off_02">
                <path id="Vector"
                    d="M10 9.18725H8.8125C8.0563 9.18725 7.6782 9.18725 7.37264 9.28819C6.77131 9.48684 6.2996 9.95855 6.10094 10.5599C6 10.8654 6 11.2435 6 11.9997C6 12.7559 6 13.134 6.10094 13.4396C6.2996 14.0409 6.77131 14.5127 7.37264 14.7113C7.6782 14.8122 8.0563 14.8122 8.8125 14.8122H10.2358C10.5165 14.8122 10.6569 14.8122 10.7866 14.8478C10.9015 14.8792 11.0098 14.931 11.1065 15.0006C11.2157 15.0791 11.3039 15.1883 11.4803 15.4066L13.1555 17.4797C14.0288 18.5604 14.4655 19.1008 14.848 19.1596C15.1792 19.2105 15.5138 19.0922 15.7394 18.8444C16 18.5583 16 17.8635 16 16.4741V14.9997M16 10.4997V6.97735C16 6.04105 16 5.57291 15.8776 5.3488C15.6329 4.90109 15.0905 4.70931 14.6188 4.90379C14.3827 5.00113 14.0885 5.36526 13.5 6.0935L12.875 6.86693M6 4.99975L20 18.9997"
                    stroke="currentColor" stroke-width="2" stroke-linecap="round" stroke-linejoin="round"></path>
            </g>
        </g>
    </symbol>
    <symbol id="icon-prev" viewBox="0 0 16 14" xmlns="http://www.w3.org/2000/svg">
        <path d="M1 2V12.5" stroke="currentColor" />
        <path d="M3 7L12.75 0.937823L12.75 13.0622L3 7Z" fill="currentColor" />
    </symbol>
    <symbol id="icon-play" viewBox="0 0 15 20" xmlns="http://www.w3.org/2000/svg">
        <path d="M15 10L-1.01012e-06 0.47372L-1.84293e-06 19.5263L15 10Z" fill="currentColor" />
    </symbol>

    <symbol id="icon-pause" fill="currentColor" viewBox="0 0 32 32" version="1.1" xmlns="http://www.w3.org/2000/svg">
        <g id="SVGRepo_bgCarrier" stroke-width="0"></g>
        <g id="SVGRepo_tracerCarrier" stroke-linecap="round" stroke-linejoin="round"></g>
        <g id="SVGRepo_iconCarrier">
            <title>pause</title>
            <path
                d="M5.92 24.096q0 0.832 0.576 1.408t1.44 0.608h4.032q0.832 0 1.44-0.608t0.576-1.408v-16.16q0-0.832-0.576-1.44t-1.44-0.576h-4.032q-0.832 0-1.44 0.576t-0.576 1.44v16.16zM18.016 24.096q0 0.832 0.608 1.408t1.408 0.608h4.032q0.832 0 1.44-0.608t0.576-1.408v-16.16q0-0.832-0.576-1.44t-1.44-0.576h-4.032q-0.832 0-1.408 0.576t-0.608 1.44v16.16z">
            </path>
        </g>
    </symbol>
    <symbol id="icon-next" viewBox="0 0 16 14" xmlns="http://www.w3.org/2000/svg">
        <path d="M15 2V12.5" stroke="currentColor" />
        <path d="M13 7L3.25 0.937823L3.25 13.0622L13 7Z" fill="currentColor" />
    </symbol>
    <symbol id="icon-loop" viewBox="0 0 20 18" xmlns="http://www.w3.org/2000/svg">
        <path
            d="M10 3L5 0.113249V5.88675L10 3ZM7 14.5C3.96243 14.5 1.5 12.0376 1.5 9H0.5C0.5 12.5899 3.41015 15.5 7 15.5V14.5ZM1.5 9C1.5 5.96243 3.96243 3.5 7 3.5V2.5C3.41015 2.5 0.5 5.41015 0.5 9H1.5Z"
            fill="currentColor" />
        <path
            d="M10 15L15 17.8868V12.1132L10 15ZM13 3.5C16.0376 3.5 18.5 5.96243 18.5 9H19.5C19.5 5.41015 16.5899 2.5 13 2.5V3.5ZM18.5 9C18.5 12.0376 16.0376 14.5 13 14.5V15.5C16.5899 15.5 19.5 12.5899 19.5 9H18.5Z"
            fill="currentColor" />
    </symbol>
    <symbol id="icon-shuffle" viewBox="0 0 20 18" xmlns="http://www.w3.org/2000/svg">
        <path
            d="M19.5 15L14.5 12.1132V17.8868L19.5 15ZM10.1632 12.0833L9.70863 12.2916L10.1632 12.0833ZM7.33683 5.91673L6.8823 6.12505L7.33683 5.91673ZM0.5 3.5H2.79151V2.5H0.5V3.5ZM6.8823 6.12505L9.70863 12.2916L10.6177 11.8749L7.79137 5.7084L6.8823 6.12505ZM14.7085 15.5H15V14.5H14.7085V15.5ZM9.70863 12.2916C10.6047 14.2466 12.5579 15.5 14.7085 15.5V14.5C12.949 14.5 11.3508 13.4745 10.6177 11.8749L9.70863 12.2916ZM2.79151 3.5C4.55105 3.5 6.14918 4.52552 6.8823 6.12505L7.79137 5.7084C6.89533 3.75341 4.94205 2.5 2.79151 2.5V3.5Z"
            fill="currentColor" />
        <path
            d="M19.5 3L14.5 5.88675V0.113249L19.5 3ZM10.1632 5.91673L9.70863 5.7084L10.1632 5.91673ZM7.33683 12.0833L6.8823 11.8749L7.33683 12.0833ZM0.5 14.5H2.79151V15.5H0.5V14.5ZM6.8823 11.8749L9.70863 5.7084L10.6177 6.12505L7.79137 12.2916L6.8823 11.8749ZM14.7085 2.5H15V3.5H14.7085V2.5ZM9.70863 5.7084C10.6047 3.75341 12.5579 2.5 14.7085 2.5V3.5C12.949 3.5 11.3508 4.52552 10.6177 6.12505L9.70863 5.7084ZM2.79151 14.5C4.55105 14.5 6.14918 13.4745 6.8823 11.8749L7.79137 12.2916C6.89533 14.2466 4.94205 15.5 2.79151 15.5V14.5Z"
            fill="currentColor" />
    </symbol>
    <symbol id="icon-theme-dark" viewBox="0 0 40 40" fill="none" xmlns="http://www.w3.org/2000/svg">
        <path
            d="M19.2836 28.1637C14.7493 28.1637 11.0605 24.4749 11.0605 19.9406C11.0605 15.6864 14.2507 12.1687 18.4807 11.758C18.7516 11.731 19.0073 11.88 19.119 12.1271C19.2313 12.3743 19.1741 12.6651 18.9766 12.8507C17.9454 13.8215 17.3777 15.1311 17.3777 16.5389C17.3777 19.3352 19.6527 21.6102 22.449 21.6102C23.9739 21.6102 25.4033 20.9324 26.3719 19.7518C26.544 19.5419 26.8311 19.4658 27.0836 19.5597C27.3378 19.6546 27.5029 19.9007 27.4954 20.1716C27.3713 24.653 23.764 28.1637 19.2836 28.1637ZM16.9498 13.3844C14.2264 14.3422 12.3281 16.9226 12.3281 19.9406C12.3281 23.7762 15.4481 26.8962 19.2836 26.8962C22.4959 26.8962 25.1772 24.762 25.9834 21.8028C24.9506 22.4984 23.7262 22.8788 22.449 22.8788C18.9534 22.8788 16.1097 20.0356 16.1097 16.5395C16.1097 15.4106 16.401 14.3325 16.9498 13.3844Z"
            fill="currentColor" />
        <circle cx="19.5576" cy="20.2549" r="19" stroke="currentColor" />
    </symbol>

    <symbol id="icon-theme-light" width="40" height="40" viewBox="0 0 40 40" fill="none"
        xmlns="http://www.w3.org/2000/svg">
        <path
            d="M19.887 26.5137C16.4577 26.5137 13.668 23.7239 13.668 20.2947C13.668 16.8654 16.4577 14.0762 19.887 14.0762C23.3163 14.0762 26.106 16.866 26.106 20.2947C26.106 23.7239 23.3163 26.5137 19.887 26.5137ZM19.887 15.3197C17.1438 15.3197 14.912 17.5515 14.912 20.2947C14.912 23.0384 17.1438 25.2697 19.887 25.2697C22.6302 25.2697 24.862 23.0384 24.862 20.2947C24.862 17.552 22.6302 15.3197 19.887 15.3197Z"
            fill="currentColor" />
        <path
            d="M19.8867 11.7103C19.5431 11.7103 19.2646 11.4313 19.2646 11.0883V8.49648C19.2646 8.15292 19.5431 7.875 19.8867 7.875C20.2297 7.875 20.5087 8.15292 20.5087 8.49648V11.0883C20.5087 11.4313 20.2297 11.7103 19.8867 11.7103Z"
            fill="currentColor" />
        <path
            d="M26.0762 14.8717C25.9169 14.8717 25.7581 14.8109 25.6363 14.6896C25.3934 14.4472 25.3934 14.0533 25.6363 13.8103L27.8645 11.5822C28.1074 11.3398 28.5008 11.3398 28.7437 11.5822C28.9867 11.8252 28.9867 12.2191 28.7437 12.4615L26.5156 14.6896C26.3944 14.8109 26.2356 14.8717 26.0762 14.8717Z"
            fill="currentColor" />
        <path
            d="M12.7063 14.8717C12.547 14.8717 12.3877 14.8109 12.2664 14.6896L10.0378 12.4615C9.79534 12.2191 9.79534 11.8252 10.0378 11.5822C10.2808 11.3398 10.6746 11.3398 10.9171 11.5822L13.1457 13.8103C13.3882 14.0533 13.3882 14.4477 13.1457 14.6896C13.0245 14.8109 12.8652 14.8717 12.7063 14.8717Z"
            fill="currentColor" />
        <path
            d="M19.3915 32.621C19.048 32.621 18.7695 32.3425 18.7695 31.999V29.4072C18.7695 29.0636 19.048 28.7852 19.3915 28.7852C19.7346 28.7852 20.013 29.0636 20.013 29.4072V31.999C20.013 32.3425 19.7346 32.621 19.3915 32.621Z"
            fill="currentColor" />
        <path
            d="M10.9732 29.0963C10.8144 29.0963 10.655 29.0354 10.5338 28.9142C10.2908 28.6717 10.2908 28.2774 10.5338 28.0344L12.7619 25.8063C13.0049 25.5633 13.3982 25.5633 13.6412 25.8063C13.8842 26.0487 13.8842 26.4426 13.6412 26.6855L11.4131 28.9142C11.2919 29.0354 11.1325 29.0963 10.9732 29.0963Z"
            fill="currentColor" />
        <path
            d="M28.8005 29.0963C28.6416 29.0963 28.4823 29.0354 28.3605 28.9142L26.1324 26.6855C25.8895 26.4426 25.8895 26.0492 26.1324 25.8063C26.3754 25.5633 26.7687 25.5633 27.0117 25.8063L29.2398 28.0344C29.4828 28.2774 29.4828 28.6707 29.2398 28.9142C29.1186 29.0354 28.9598 29.0963 28.8005 29.0963Z"
            fill="currentColor" />
        <path
            d="M10.4779 20.9169H7.67963C7.33607 20.9169 7.05762 20.6384 7.05762 20.2949C7.05762 19.9518 7.33607 19.6729 7.67963 19.6729H10.4779C10.8214 19.6729 11.0999 19.9513 11.0999 20.2949C11.0994 20.6384 10.8214 20.9169 10.4779 20.9169Z"
            fill="currentColor" />
        <path
            d="M31.6212 20.9169H28.3041C27.9606 20.9169 27.6821 20.6384 27.6821 20.2949C27.6821 19.9518 27.9606 19.6729 28.3041 19.6729H31.6212C31.9642 19.6729 32.2432 19.9513 32.2432 20.2949C32.2432 20.6384 31.9642 20.9169 31.6212 20.9169Z"
            fill="currentColor" />
        <circle cx="19.5576" cy="20.375" r="19" stroke="currentColor" />
    </symbol>

    <symbol id="icon-avatar" width="60px" height="60px" viewBox="0 0 16.00 16.00" xmlns="http://www.w3.org/2000/svg"
        fill="#000000" transform="rotate(0)">
        <g id="SVGRepo_bgCarrier" stroke-width="0"></g>
        <g id="SVGRepo_tracerCarrier" stroke-linecap="round" stroke-linejoin="round"></g>
        <g id="SVGRepo_iconCarrier">
            <path
                d="m 8 1 c -1.65625 0 -3 1.34375 -3 3 s 1.34375 3 3 3 s 3 -1.34375 3 -3 s -1.34375 -3 -3 -3 z m -1.5 7 c -2.492188 0 -4.5 2.007812 -4.5 4.5 v 0.5 c 0 1.109375 0.890625 2 2 2 h 8 c 1.109375 0 2 -0.890625 2 -2 v -0.5 c 0 -2.492188 -2.007812 -4.5 -4.5 -4.5 z m 0 0"
                fill="currentColor"></path>
        </g>
    </symbol>
    <symbol id="icon-alert" viewBox="0 0 24 24" fill="none" xmlns="http://www.w3.org/2000/svg">
        <g id="SVGRepo_bgCarrier" stroke-width="0"></g>
        <g id="SVGRepo_tracerCarrier" stroke-linecap="round" stroke-linejoin="round"></g>
        <g id="SVGRepo_iconCarrier">
            <path
                d="M12 5.5C12.5523 5.5 13 5.94772 13 6.5L13 13.5C13 14.0523 12.5523 14.5 12 14.5C11.4477 14.5 11 14.0523 11 13.5L11 6.5C11 5.94772 11.4477 5.5 12 5.5Z"
                fill="currentColor"></path>
            <path
                d="M12 18.5C12.8284 18.5 13.5 17.8284 13.5 17C13.5 16.1716 12.8284 15.5 12 15.5C11.1716 15.5 10.5 16.1716 10.5 17C10.5 17.8284 11.1716 18.5 12 18.5Z"
                fill="currentColor"></path>
            <path fill-rule="evenodd" clip-rule="evenodd"
                d="M1 12C1 5.92487 5.92487 1 12 1C18.0751 1 23 5.92487 23 12C23 18.0751 18.0751 23 12 23C5.92487 23 1 18.0751 1 12ZM12 3C7.02944 3 3 7.02944 3 12C3 16.9706 7.02944 21 12 21C16.9706 21 21 16.9706 21 12C21 7.02944 16.9706 3 12 3Z"
                fill="currentColor"></path>
        </g>
    </symbol>
</svg>