<svg>
    <symbol id="icon-search"  viewBox="0 0 17 18"  xmlns="http://www.w3.org/2000/svg">
        <path d="M11.9276 12.7748L15.37 17.0644" stroke="white" stroke-linecap="round"/>
        <circle cx="8.48533" cy="8.48526" r="5.5" transform="rotate(-38.7469 8.48533 8.48526)" stroke="white"/>
    </symbol>
    <symbol id="icon-watch"  viewBox="0 0 12 12"  xmlns="http://www.w3.org/2000/svg">
        <circle cx="6" cy="6" r="5.5" stroke="#696969"/>
        <path d="M4 6H6.5V2.5" stroke="#696969"/>
    </symbol>
    <symbol id="icon-like" viewBox="0 0 16 14" fill="none" xmlns="http://www.w3.org/2000/svg">
        <path d="M8.34372 2.1356H8.36529C9.29718 1.32164 11.7563 0.0456476 13.9565 1.64722C17.3111 4.0891 14.2458 9.37988 8.36529 12.8799H8.34372M8.34378 2.1356H8.32221C7.39032 1.32164 4.93121 0.0456476 2.73102 1.64722C-0.623552 4.0891 2.44172 9.37988 8.32221 12.8799H8.34378" stroke="#696969"/>
    </symbol>
    <symbol id="icon-note"  viewBox="0 0 20 19"  xmlns="http://www.w3.org/2000/svg">
        <path d="M8 16V1.9697L19 1V13" stroke="#4E4E4E"/>
        <ellipse cx="4.5" cy="16" rx="3.5" ry="2" stroke="#4E4E4E"/>
        <ellipse cx="15.5" cy="13" rx="3.5" ry="2" stroke="#4E4E4E"/>
    </symbol>
    <symbol id="icon-volume" fill="#fff" viewBox="0 0 48 48" xmlns="http://www.w3.org/2000/svg">
        <g id="Layer_2" data-name="Layer 2">
        <g id="invisible_box" data-name="invisible box">
        <rect width="48" height="48" fill="none"/>
        </g>
        <g id="icons_Q2" data-name="icons Q2">
        <path d="M26,11.9V36.1l-6.6-6L18.2,29H10V19h8.2l1.2-1.1,6.6-6M29,4a.9.9,0,0,0-.7.3L16.7,15H8a2,2,0,0,0-2,2V31a2,2,0,0,0,2,2h8.7L28.3,43.7a.9.9,0,0,0,.7.3,1,1,0,0,0,1-1V5a1,1,0,0,0-1-1Z"/>
        <path d="M36,42a2.1,2.1,0,0,1-1.6-.8,2,2,0,0,1,.4-2.8,18,18,0,0,0,0-28.8,2,2,0,1,1,2.4-3.2A22.4,22.4,0,0,1,46,24a22.4,22.4,0,0,1-8.8,17.6A1.7,1.7,0,0,1,36,42Z"/>
        <path d="M34,15.5v17a.5.5,0,0,0,.9.3,14,14,0,0,0,0-17.6A.5.5,0,0,0,34,15.5Z"/>
        </g>
        </g>
    </symbol>
    <symbol id="icon-dislike" viewBox="0 0 24 23" fill="none" xmlns="http://www.w3.org/2000/svg">
        <g filter="url(#filter0_d_6_62)">
        <path d="M5 0.879883L19 13.3799" stroke="#696969"/>
        <path d="M12.3437 3.1356H12.3653C13.2972 2.32164 15.7563 1.04565 17.9565 2.64722C21.3111 5.0891 18.2458 10.3799 12.3653 13.8799H12.3437M12.3438 3.1356H12.3222C11.3903 2.32164 8.93121 1.04565 6.73102 2.64722C3.37645 5.0891 6.44172 10.3799 12.3222 13.8799H12.3438" stroke="#696969"/>
        </g>
        <defs>
        <filter id="filter0_d_6_62" x="0.666992" y="0.506836" width="23.1768" height="21.873" filterUnits="userSpaceOnUse" color-interpolation-filters="sRGB">
        <feFlood flood-opacity="0" result="BackgroundImageFix"/>
        <feColorMatrix in="SourceAlpha" type="matrix" values="0 0 0 0 0 0 0 0 0 0 0 0 0 0 0 0 0 0 127 0" result="hardAlpha"/>
        <feOffset dy="4"/>
        <feGaussianBlur stdDeviation="2"/>
        <feComposite in2="hardAlpha" operator="out"/>
        <feColorMatrix type="matrix" values="0 0 0 0 0 0 0 0 0 0 0 0 0 0 0 0 0 0 0.25 0"/>
        <feBlend mode="normal" in2="BackgroundImageFix" result="effect1_dropShadow_6_62"/>
        <feBlend mode="normal" in="SourceGraphic" in2="effect1_dropShadow_6_62" result="shape"/>
        </filter>
        </defs>
    </symbol>
    <symbol id="icon-prev" viewBox="0 0 16 14"  xmlns="http://www.w3.org/2000/svg">
        <path d="M1 2V12.5" stroke="white"/>
        <path d="M3 7L12.75 0.937823L12.75 13.0622L3 7Z" fill="#D9D9D9"/>
    </symbol>
    <symbol id="icon-play" viewBox="0 0 15 20"  xmlns="http://www.w3.org/2000/svg">
        <path d="M15 10L-1.01012e-06 0.47372L-1.84293e-06 19.5263L15 10Z" fill="#D9D9D9"/>
    </symbol>
    <symbol id="icon-next" viewBox="0 0 16 14"  xmlns="http://www.w3.org/2000/svg">
        <path d="M15 2V12.5" stroke="white"/>
        <path d="M13 7L3.25 0.937823L3.25 13.0622L13 7Z" fill="#D9D9D9"/>
    </symbol>
    <symbol id="icon-loop" viewBox="0 0 20 18"  xmlns="http://www.w3.org/2000/svg">
        <path d="M10 3L5 0.113249V5.88675L10 3ZM7 14.5C3.96243 14.5 1.5 12.0376 1.5 9H0.5C0.5 12.5899 3.41015 15.5 7 15.5V14.5ZM1.5 9C1.5 5.96243 3.96243 3.5 7 3.5V2.5C3.41015 2.5 0.5 5.41015 0.5 9H1.5Z" fill="#696969"/>
        <path d="M10 15L15 17.8868V12.1132L10 15ZM13 3.5C16.0376 3.5 18.5 5.96243 18.5 9H19.5C19.5 5.41015 16.5899 2.5 13 2.5V3.5ZM18.5 9C18.5 12.0376 16.0376 14.5 13 14.5V15.5C16.5899 15.5 19.5 12.5899 19.5 9H18.5Z" fill="#696969"/>
    </symbol>
    <symbol id="icon-shuffle" viewBox="0 0 20 18"  xmlns="http://www.w3.org/2000/svg">
        <path d="M19.5 15L14.5 12.1132V17.8868L19.5 15ZM10.1632 12.0833L9.70863 12.2916L10.1632 12.0833ZM7.33683 5.91673L6.8823 6.12505L7.33683 5.91673ZM0.5 3.5H2.79151V2.5H0.5V3.5ZM6.8823 6.12505L9.70863 12.2916L10.6177 11.8749L7.79137 5.7084L6.8823 6.12505ZM14.7085 15.5H15V14.5H14.7085V15.5ZM9.70863 12.2916C10.6047 14.2466 12.5579 15.5 14.7085 15.5V14.5C12.949 14.5 11.3508 13.4745 10.6177 11.8749L9.70863 12.2916ZM2.79151 3.5C4.55105 3.5 6.14918 4.52552 6.8823 6.12505L7.79137 5.7084C6.89533 3.75341 4.94205 2.5 2.79151 2.5V3.5Z" fill="#696969"/>
        <path d="M19.5 3L14.5 5.88675V0.113249L19.5 3ZM10.1632 5.91673L9.70863 5.7084L10.1632 5.91673ZM7.33683 12.0833L6.8823 11.8749L7.33683 12.0833ZM0.5 14.5H2.79151V15.5H0.5V14.5ZM6.8823 11.8749L9.70863 5.7084L10.6177 6.12505L7.79137 12.2916L6.8823 11.8749ZM14.7085 2.5H15V3.5H14.7085V2.5ZM9.70863 5.7084C10.6047 3.75341 12.5579 2.5 14.7085 2.5V3.5C12.949 3.5 11.3508 4.52552 10.6177 6.12505L9.70863 5.7084ZM2.79151 14.5C4.55105 14.5 6.14918 13.4745 6.8823 11.8749L7.79137 12.2916C6.89533 14.2466 4.94205 15.5 2.79151 15.5V14.5Z" fill="#696969"/>
    </symbol>
    <symbol id="icon-theme" viewBox="0 0 40 40" fill="none" xmlns="http://www.w3.org/2000/svg">
        <path d="M19.2836 28.1637C14.7493 28.1637 11.0605 24.4749 11.0605 19.9406C11.0605 15.6864 14.2507 12.1687 18.4807 11.758C18.7516 11.731 19.0073 11.88 19.119 12.1271C19.2313 12.3743 19.1741 12.6651 18.9766 12.8507C17.9454 13.8215 17.3777 15.1311 17.3777 16.5389C17.3777 19.3352 19.6527 21.6102 22.449 21.6102C23.9739 21.6102 25.4033 20.9324 26.3719 19.7518C26.544 19.5419 26.8311 19.4658 27.0836 19.5597C27.3378 19.6546 27.5029 19.9007 27.4954 20.1716C27.3713 24.653 23.764 28.1637 19.2836 28.1637ZM16.9498 13.3844C14.2264 14.3422 12.3281 16.9226 12.3281 19.9406C12.3281 23.7762 15.4481 26.8962 19.2836 26.8962C22.4959 26.8962 25.1772 24.762 25.9834 21.8028C24.9506 22.4984 23.7262 22.8788 22.449 22.8788C18.9534 22.8788 16.1097 20.0356 16.1097 16.5395C16.1097 15.4106 16.401 14.3325 16.9498 13.3844Z" fill="white"/>
        <circle cx="19.5576" cy="20.2549" r="19" stroke="white"/>
    </symbol>
</svg>