<svg>
    <symbol id="icon-search"  viewBox="0 0 17 18"  xmlns="http://www.w3.org/2000/svg">
        <path d="M11.9276 12.7748L15.37 17.0644" stroke="white" stroke-linecap="round"/>
        <circle cx="8.48533" cy="8.48526" r="5.5" transform="rotate(-38.7469 8.48533 8.48526)" stroke="white"/>
    </symbol>
    <symbol id="icon-watch"  viewBox="0 0 12 12"  xmlns="http://www.w3.org/2000/svg">
        <circle cx="6" cy="6" r="5.5" stroke="#696969"/>
        <path d="M4 6H6.5V2.5" stroke="#696969"/>
    </symbol>
    <symbol id="icon-like" viewBox="0 0 16 14" fill="none" xmlns="http://www.w3.org/2000/svg">
        <path d="M8.34372 2.1356H8.36529C9.29718 1.32164 11.7563 0.0456476 13.9565 1.64722C17.3111 4.0891 14.2458 9.37988 8.36529 12.8799H8.34372M8.34378 2.1356H8.32221C7.39032 1.32164 4.93121 0.0456476 2.73102 1.64722C-0.623552 4.0891 2.44172 9.37988 8.32221 12.8799H8.34378" stroke="#696969"/>
    </symbol>
    <symbol id="icon-note"  viewBox="0 0 20 19"  xmlns="http://www.w3.org/2000/svg">
        <path d="M8 16V1.9697L19 1V13" stroke="#4E4E4E"/>
        <ellipse cx="4.5" cy="16" rx="3.5" ry="2" stroke="#4E4E4E"/>
        <ellipse cx="15.5" cy="13" rx="3.5" ry="2" stroke="#4E4E4E"/>
    </symbol>
    <symbol id="icon-volume" viewBox="0 0 24 24" fill="none" xmlns="http://www.w3.org/2000/svg" stroke="#ffffff"><g id="SVGRepo_bgCarrier" stroke-width="0"></g><g id="SVGRepo_tracerCarrier" stroke-linecap="round" stroke-linejoin="round"></g><g id="SVGRepo_iconCarrier"> <g id="Media / Volume_Min"> <path id="Vector" d="M16.41 8.34283C16.9095 8.80867 17.3084 9.37193 17.5818 9.99785C17.8553 10.6238 17.9976 11.2991 18 11.9821C18.0024 12.6652 17.8648 13.3415 17.5957 13.9693C17.3266 14.5971 16.9317 15.1632 16.4354 15.6325M7.4803 15.4065L9.15553 17.4796C10.0288 18.5603 10.4655 19.1006 10.848 19.1594C11.1792 19.2104 11.5138 19.092 11.7394 18.8443C12 18.5581 12 17.8634 12 16.4739V7.52526C12 6.13581 12 5.44109 11.7394 5.1549C11.5138 4.90715 11.1792 4.78884 10.848 4.83975C10.4655 4.89858 10.0288 5.43893 9.15553 6.51963L7.4803 8.59273C7.30388 8.81105 7.21567 8.92021 7.10652 8.99876C7.00982 9.06835 6.90147 9.1201 6.78656 9.15158C6.65687 9.1871 6.51652 9.1871 6.23583 9.1871H4.8125C4.0563 9.1871 3.6782 9.1871 3.37264 9.28804C2.77131 9.4867 2.2996 9.95841 2.10094 10.5597C2 10.8653 2 11.2434 2 11.9996C2 12.7558 2 13.1339 2.10094 13.4395C2.2996 14.0408 2.77131 14.5125 3.37264 14.7112C3.6782 14.8121 4.0563 14.8121 4.8125 14.8121H6.23583C6.51652 14.8121 6.65687 14.8121 6.78656 14.8476C6.90147 14.8791 7.00982 14.9308 7.10652 15.0004C7.21567 15.079 7.30388 15.1881 7.4803 15.4065Z" stroke="#ffffff" stroke-width="2" stroke-linecap="round" stroke-linejoin="round"></path> </g> </g></symbol>

    <symbol id="icon-mute" viewBox="0 0 24 24" fill="none" xmlns="http://www.w3.org/2000/svg"><g id="SVGRepo_bgCarrier" stroke-width="0"></g><g id="SVGRepo_tracerCarrier" stroke-linecap="round" stroke-linejoin="round"></g><g id="SVGRepo_iconCarrier"> <g id="Media / Volume_Off_02"> <path id="Vector" d="M10 9.18725H8.8125C8.0563 9.18725 7.6782 9.18725 7.37264 9.28819C6.77131 9.48684 6.2996 9.95855 6.10094 10.5599C6 10.8654 6 11.2435 6 11.9997C6 12.7559 6 13.134 6.10094 13.4396C6.2996 14.0409 6.77131 14.5127 7.37264 14.7113C7.6782 14.8122 8.0563 14.8122 8.8125 14.8122H10.2358C10.5165 14.8122 10.6569 14.8122 10.7866 14.8478C10.9015 14.8792 11.0098 14.931 11.1065 15.0006C11.2157 15.0791 11.3039 15.1883 11.4803 15.4066L13.1555 17.4797C14.0288 18.5604 14.4655 19.1008 14.848 19.1596C15.1792 19.2105 15.5138 19.0922 15.7394 18.8444C16 18.5583 16 17.8635 16 16.4741V14.9997M16 10.4997V6.97735C16 6.04105 16 5.57291 15.8776 5.3488C15.6329 4.90109 15.0905 4.70931 14.6188 4.90379C14.3827 5.00113 14.0885 5.36526 13.5 6.0935L12.875 6.86693M6 4.99975L20 18.9997" stroke="#ffffff" stroke-width="2" stroke-linecap="round" stroke-linejoin="round"></path> </g> </g></symbol>
    <symbol id="icon-dislike" viewBox="0 0 24 23" fill="none" xmlns="http://www.w3.org/2000/svg">
        <g filter="url(#filter0_d_6_62)">
        <path d="M5 0.879883L19 13.3799" stroke="#696969"/>
        <path d="M12.3437 3.1356H12.3653C13.2972 2.32164 15.7563 1.04565 17.9565 2.64722C21.3111 5.0891 18.2458 10.3799 12.3653 13.8799H12.3437M12.3438 3.1356H12.3222C11.3903 2.32164 8.93121 1.04565 6.73102 2.64722C3.37645 5.0891 6.44172 10.3799 12.3222 13.8799H12.3438" stroke="#696969"/>
        </g>
        <defs>
        <filter id="filter0_d_6_62" x="0.666992" y="0.506836" width="23.1768" height="21.873" filterUnits="userSpaceOnUse" color-interpolation-filters="sRGB">
        <feFlood flood-opacity="0" result="BackgroundImageFix"/>
        <feColorMatrix in="SourceAlpha" type="matrix" values="0 0 0 0 0 0 0 0 0 0 0 0 0 0 0 0 0 0 127 0" result="hardAlpha"/>
        <feOffset dy="4"/>
        <feGaussianBlur stdDeviation="2"/>
        <feComposite in2="hardAlpha" operator="out"/>
        <feColorMatrix type="matrix" values="0 0 0 0 0 0 0 0 0 0 0 0 0 0 0 0 0 0 0.25 0"/>
        <feBlend mode="normal" in2="BackgroundImageFix" result="effect1_dropShadow_6_62"/>
        <feBlend mode="normal" in="SourceGraphic" in2="effect1_dropShadow_6_62" result="shape"/>
        </filter>
        </defs>
    </symbol>
    <symbol id="icon-prev" viewBox="0 0 16 14"  xmlns="http://www.w3.org/2000/svg">
        <path d="M1 2V12.5" stroke="white"/>
        <path d="M3 7L12.75 0.937823L12.75 13.0622L3 7Z" fill="#D9D9D9"/>
    </symbol>
    <symbol id="icon-play" viewBox="0 0 15 20"  xmlns="http://www.w3.org/2000/svg">
        <path d="M15 10L-1.01012e-06 0.47372L-1.84293e-06 19.5263L15 10Z" fill="#D9D9D9"/>
    </symbol>

    <symbol id="icon-pause" fill="#ffffff" viewBox="0 0 32 32" version="1.1" xmlns="http://www.w3.org/2000/svg"><g id="SVGRepo_bgCarrier" stroke-width="0"></g><g id="SVGRepo_tracerCarrier" stroke-linecap="round" stroke-linejoin="round"></g><g id="SVGRepo_iconCarrier"> <title>pause</title> <path d="M5.92 24.096q0 0.832 0.576 1.408t1.44 0.608h4.032q0.832 0 1.44-0.608t0.576-1.408v-16.16q0-0.832-0.576-1.44t-1.44-0.576h-4.032q-0.832 0-1.44 0.576t-0.576 1.44v16.16zM18.016 24.096q0 0.832 0.608 1.408t1.408 0.608h4.032q0.832 0 1.44-0.608t0.576-1.408v-16.16q0-0.832-0.576-1.44t-1.44-0.576h-4.032q-0.832 0-1.408 0.576t-0.608 1.44v16.16z"></path> </g></symbol>
    <symbol id="icon-next" viewBox="0 0 16 14"  xmlns="http://www.w3.org/2000/svg">
        <path d="M15 2V12.5" stroke="white"/>
        <path d="M13 7L3.25 0.937823L3.25 13.0622L13 7Z" fill="#D9D9D9"/>
    </symbol>
    <symbol id="icon-loop" viewBox="0 0 20 18"  xmlns="http://www.w3.org/2000/svg">
        <path d="M10 3L5 0.113249V5.88675L10 3ZM7 14.5C3.96243 14.5 1.5 12.0376 1.5 9H0.5C0.5 12.5899 3.41015 15.5 7 15.5V14.5ZM1.5 9C1.5 5.96243 3.96243 3.5 7 3.5V2.5C3.41015 2.5 0.5 5.41015 0.5 9H1.5Z" fill="#696969"/>
        <path d="M10 15L15 17.8868V12.1132L10 15ZM13 3.5C16.0376 3.5 18.5 5.96243 18.5 9H19.5C19.5 5.41015 16.5899 2.5 13 2.5V3.5ZM18.5 9C18.5 12.0376 16.0376 14.5 13 14.5V15.5C16.5899 15.5 19.5 12.5899 19.5 9H18.5Z" fill="#696969"/>
    </symbol>
    <symbol id="icon-shuffle" viewBox="0 0 20 18"  xmlns="http://www.w3.org/2000/svg">
        <path d="M19.5 15L14.5 12.1132V17.8868L19.5 15ZM10.1632 12.0833L9.70863 12.2916L10.1632 12.0833ZM7.33683 5.91673L6.8823 6.12505L7.33683 5.91673ZM0.5 3.5H2.79151V2.5H0.5V3.5ZM6.8823 6.12505L9.70863 12.2916L10.6177 11.8749L7.79137 5.7084L6.8823 6.12505ZM14.7085 15.5H15V14.5H14.7085V15.5ZM9.70863 12.2916C10.6047 14.2466 12.5579 15.5 14.7085 15.5V14.5C12.949 14.5 11.3508 13.4745 10.6177 11.8749L9.70863 12.2916ZM2.79151 3.5C4.55105 3.5 6.14918 4.52552 6.8823 6.12505L7.79137 5.7084C6.89533 3.75341 4.94205 2.5 2.79151 2.5V3.5Z" fill="#696969"/>
        <path d="M19.5 3L14.5 5.88675V0.113249L19.5 3ZM10.1632 5.91673L9.70863 5.7084L10.1632 5.91673ZM7.33683 12.0833L6.8823 11.8749L7.33683 12.0833ZM0.5 14.5H2.79151V15.5H0.5V14.5ZM6.8823 11.8749L9.70863 5.7084L10.6177 6.12505L7.79137 12.2916L6.8823 11.8749ZM14.7085 2.5H15V3.5H14.7085V2.5ZM9.70863 5.7084C10.6047 3.75341 12.5579 2.5 14.7085 2.5V3.5C12.949 3.5 11.3508 4.52552 10.6177 6.12505L9.70863 5.7084ZM2.79151 14.5C4.55105 14.5 6.14918 13.4745 6.8823 11.8749L7.79137 12.2916C6.89533 14.2466 4.94205 15.5 2.79151 15.5V14.5Z" fill="#696969"/>
    </symbol>
    <symbol id="icon-theme" viewBox="0 0 40 40" fill="none" xmlns="http://www.w3.org/2000/svg">
        <path d="M19.2836 28.1637C14.7493 28.1637 11.0605 24.4749 11.0605 19.9406C11.0605 15.6864 14.2507 12.1687 18.4807 11.758C18.7516 11.731 19.0073 11.88 19.119 12.1271C19.2313 12.3743 19.1741 12.6651 18.9766 12.8507C17.9454 13.8215 17.3777 15.1311 17.3777 16.5389C17.3777 19.3352 19.6527 21.6102 22.449 21.6102C23.9739 21.6102 25.4033 20.9324 26.3719 19.7518C26.544 19.5419 26.8311 19.4658 27.0836 19.5597C27.3378 19.6546 27.5029 19.9007 27.4954 20.1716C27.3713 24.653 23.764 28.1637 19.2836 28.1637ZM16.9498 13.3844C14.2264 14.3422 12.3281 16.9226 12.3281 19.9406C12.3281 23.7762 15.4481 26.8962 19.2836 26.8962C22.4959 26.8962 25.1772 24.762 25.9834 21.8028C24.9506 22.4984 23.7262 22.8788 22.449 22.8788C18.9534 22.8788 16.1097 20.0356 16.1097 16.5395C16.1097 15.4106 16.401 14.3325 16.9498 13.3844Z" fill="white"/>
        <circle cx="19.5576" cy="20.2549" r="19" stroke="white"/>
    </symbol>
    <symbol id="icon-avatar" viewBox="0 0 1024 1024" xmlns="http://www.w3.org/2000/svg" >
<path d="M628.736 528.896A416 416 0 0 1 928 928H96a415.872 415.872 0 0 1 299.264-399.104L512 704l116.736-175.104zM720 304a208 208 0 1 1-416 0 208 208 0 0 1 416 0z"/>
</symbol>
</svg>